<svg id="Layer_1" data-name="Layer 1" xmlns="http://www.w3.org/2000/svg" viewBox="0 0 486.98 80.22"><defs><style>.cls-1{fill:#3349c0;}</style></defs><title>Hirempire Logoss</title><polygon class="cls-1" points="68.52 6.28 68.52 60.64 48 72.31 55.18 37.64 42.95 37.64 44.08 74.05 34.26 80.22 24.45 74.05 25.57 37.64 13.34 37.64 20.52 72.31 0 60.64 0 6.28 18.05 6.28 16.65 14.42 24.77 14.42 24.77 0 46.62 0 43.75 6.28 43.75 14.42 51.87 14.42 50.47 6.28 68.52 6.28"/><path class="cls-1" d="M75.94,60.31V6.18H91.13V32h.81c1.29-6.87,5.82-13.17,16.24-13.17,10.83,0,16,6.87,16,15.91V60.31H109V39.79c0-5.65-2.18-7.43-9.13-7.43s-8.72,1.7-8.72,6.95v21Z"/><path class="cls-1" d="M128.69,15.87V6.18h15.19v9.69Zm0,44.43V19.59h15.19V60.31Z"/><path class="cls-1" d="M148.73,60.31V19.59h14.22V30.25h.81c1.13-6.71,5.33-11.47,13.41-11.47,9,0,12.52,5.9,12.52,14.06v8.08H174.5V36.15c0-3.39-1.29-4.6-5.25-4.6-4.12,0-5.33,1.21-5.33,4.44V60.31Z"/><path class="cls-1" d="M192.11,39.95c0-13.25,9.61-21.17,23.19-21.17,14.06,0,23,7,23,20.12a32.38,32.38,0,0,1-.24,3.88H206.17c.24,4.93,2.42,6.3,8.89,6.3,6.14,0,7.76-1.05,7.76-3.47v-.89H238v1c0,9-8.64,15.43-22.38,15.43S192.11,55.22,192.11,39.95Zm14.3-4.85h17.21c-.56-3.47-3-4.69-8.64-4.69S207.05,31.63,206.41,35.1Z"/><path class="cls-1" d="M242.36,60.31V19.59h14.22V32h.81c.89-6.79,4.6-13.17,14.86-13.17,9.61,0,14.22,5.82,15,13.17h.81c.89-6.79,4.77-13.17,15.35-13.17,10.42,0,15.35,6.62,15.35,15.43V60.31H303.59V39.79c0-5.65-1.62-7.43-7.92-7.43s-7.51,1.7-7.51,6.95v21H273V39.79c0-5.65-1.62-7.43-7.92-7.43s-7.51,1.7-7.51,6.95v21Z"/><path class="cls-1" d="M323.31,74V19.59h14.22v11h.81c1.29-8.08,6.14-11.79,15.67-11.79,12.44,0,19.31,8,19.31,21.17s-6.71,21.17-18.66,21.17c-9.61,0-14.14-4.52-15.35-11.31h-.81V74ZM348.51,47.3c7,0,9.45-1.94,9.45-7.35s-2.42-7.27-9.45-7.27c-6.79,0-10,1.29-10,7.19v.57C338.49,46.17,341.73,47.3,348.51,47.3Z"/><path class="cls-1" d="M377.35,15.87V6.18h15.19v9.69Zm0,44.43V19.59h15.19V60.31Z"/><path class="cls-1" d="M397.39,60.31V19.59h14.22V30.25h.81c1.13-6.71,5.33-11.47,13.41-11.47,9,0,12.52,5.9,12.52,14.06v8.08H423.16V36.15c0-3.39-1.29-4.6-5.25-4.6-4.12,0-5.33,1.21-5.33,4.44V60.31Z"/><path class="cls-1" d="M440.77,39.95c0-13.25,9.61-21.17,23.19-21.17,14.06,0,23,7,23,20.12a32.38,32.38,0,0,1-.24,3.88H454.83c.24,4.93,2.42,6.3,8.89,6.3,6.14,0,7.76-1.05,7.76-3.47v-.89h15.19v1c0,9-8.64,15.43-22.38,15.43S440.77,55.22,440.77,39.95Zm14.3-4.85h17.21c-.56-3.47-3-4.69-8.64-4.69S455.71,31.63,455.07,35.1Z"/></svg>