<svg xmlns="http://www.w3.org/2000/svg" width="1000" height="1000" viewBox="0 0 1000 1000"><title>U+F112</title><path d="M420 118Q433 118 442.500 127.500Q452 137 452 150Q452 220 487 280Q522 340 581.500 375Q641 410 712 410Q725 410 734 419Q743 428 743 441Q743 454 734 463Q725 472 712 472Q641 472 581.500 507Q522 542 487 602Q452 662 452 733Q452 746 442.500 755Q433 764 420 764Q407 764 398 755Q389 746 389 733Q389 662 354 602Q319 542 259 507Q199 472 129 472Q116 472 106.500 463Q97 454 97 441Q97 428 106.500 419Q116 410 129 410Q199 410 259 375Q319 340 354 280Q389 220 389 149Q389 137 398 127.500Q407 118 420 118M754 584Q764 584 771 591Q778 598 778 608Q778 635 791.500 658.500Q805 682 828 695.500Q851 709 879 709Q889 709 896 716Q903 723 903 733Q903 743 896 750Q889 757 879 757Q851 757 828 770.500Q805 784 791.500 807Q778 830 778 858Q778 868 771 875Q764 882 754 882Q744 882 737 875Q730 868 730 858Q730 838 722 819.500Q714 801 700 786.500Q686 772 667.500 764.500Q649 757 629 757Q619 757 612 750Q605 743 605 733Q605 723 612 716Q619 709 629 709Q646 709 664 701Q682 693 697 678.500Q712 664 721 645.500Q730 627 730 608Q730 598 737 591Q744 584 754 584" fill="currentColor"/></svg>