<svg version="1.2" xmlns="http://www.w3.org/2000/svg" viewBox="-92.29955036707122 3.323556190057687 459.59910073414244 137.3528876198846" width="461" height="138">
	<style>
		.s0 { fill: #ffffff } 
		.s1 { fill: #3349c0 } 
		.s2 { fill: #292929 } 
	</style>
	<path id="Shape 1" fill-rule="evenodd" class="s0" d="m-75 3h425c9.39 0 17 7.61 17 17v104c0 9.39-7.61 17-17 17h-425c-9.39 0-17-7.61-17-17v-104c0-9.39 7.61-17 17-17z"/>
	<path class="s1" d="m20.38 33.87v61.39l-23.85 13.19 8.34-39.17h-14.22l1.33 41.14-11.43 6.97-11.39-6.97 1.29-41.14h-14.19l8.34 39.17-23.85-13.19v-61.39h20.98l-1.63 9.18h9.45v-16.28h25.38l-3.34 7.1v9.18h9.45l-1.63-9.18z"/>
	<g id="Layer 1">
		<g id="Folder 1">
			<path class="s2" d="m95.8 89.24c-14.86 0-26.05-11.43-26.05-25.54 0-14.16 10.62-25.69 26.05-25.69 8.19 0 13.86 2.45 18.28 8.05l-7.14 5.78c-3-3.1-6.62-4.65-11.14-4.65-10.05 0-15.57 7.48-15.57 16.51 0 9.03 6.04 16.37 15.57 16.37 4.47 0 8.28-1.56 11.28-4.66l7.05 6.02c-4.24 5.36-10.05 7.81-18.33 7.81z"/>
			<path class="s2" d="m144.89 51.65h9.62v36.69h-9.62v-5.36c-2 3.81-5.33 6.35-11.71 6.35-10.19 0-18.33-8.61-18.33-19.19 0-10.58 8.14-19.19 18.33-19.19 6.33 0 9.71 2.54 11.71 6.35zm0.29 18.48c0-5.73-4.05-10.49-10.43-10.49-6.14 0-10.14 4.8-10.14 10.49 0 5.56 4 10.49 10.14 10.49 6.33 0 10.43-4.79 10.43-10.49z"/>
			<path class="s2" d="m170.94 36.84v51.46h-9.62v-51.46z"/>
			<path class="s2" d="m181.04 89.1c-3.22 0-5.81-2.5-5.81-5.6 0-3.1 2.59-5.6 5.81-5.6 3.21 0 5.81 2.5 5.81 5.6 0 3.1-2.6 5.6-5.81 5.6z"/>
			<path class="s2" d="m223.66 82.42c-3.58 4.23-9 6.91-15.43 6.91-11.48 0-19.91-8.61-19.91-19.19 0-10.58 8.43-19.19 19.91-19.19 6.19 0 11.57 2.54 15.14 6.54l-7.43 6.06c-1.86-2.25-4.28-3.95-7.71-3.95-6.15 0-10.15 4.8-10.15 10.49 0 5.69 4 10.49 10.15 10.49 3.71 0 6.28-1.88 8.19-4.42z"/>
			<path class="s2" d="m224.47 70.14c0-10.58 8.42-19.19 19.9-19.19 11.48 0 19.91 8.61 19.91 19.19 0 10.58-8.43 19.19-19.91 19.19-11.48-0.04-19.9-8.61-19.9-19.19zm30.04 0c0-5.74-4-10.49-10.14-10.49-6.14-0.05-10.14 4.75-10.14 10.49 0 5.69 4 10.49 10.14 10.49 6.14 0 10.14-4.8 10.14-10.49z"/>
			<path class="s2" d="m329.32 65.91v22.39h-9.62v-20.09c0-6.35-3.04-9.08-7.61-9.08-4.29 0-7.34 2.07-7.34 9.08v20.09h-9.62v-20.09c0-6.35-3.09-9.08-7.62-9.08-4.28 0-8.04 2.07-8.04 9.08v20.09h-9.62v-36.69h9.62v5.08c2-3.95 5.62-5.93 11.19-5.93 5.28 0 9.71 2.54 12.14 6.82 2.43-4.37 6-6.82 12.48-6.82 7.9 0.05 14.04 5.88 14.04 15.15z"/>
		</g>
	</g>
</svg>